# xmcd
#
# Track frame offsets: 
#        150
#        14674
#        27198
#        39306
#        53186
#        63986
#        77713
#        95636
#        106667
#        119995
#        133516
#        153914
#        165945
#        176571
#        194179
#        205100
#        215298
#        226559
#        238640
#        251440
#        264633
#        279084
#        292373
#        303518
#        315781
#
# Disc length: 4371 seconds
#
# Revision: 0
# Processed by: cddbd v1.5.2PL0 Copyright (c) Steve Scherf et al.
# Submitted via: ExactAudioCopy v1.0b3
#
DISCID=58111119
DTITLE=Various Artist - Definitive Detroit Blues [CD2]
DYEAR=2013
DGENRE=Blues
TTITLE0=Baby Boy Warren - Bad Lover Blues
TTITLE1=Eddie Kirkland - No Shoes
TTITLE2=John Lee Hooker - Rock Me Mama
TTITLE3=John Von Battle - Lookin' For My Woman
TTITLE4=Bobo Jenkins - Nothing But Love
TTITLE5=L.C. Green - Remember Way Back
TTITLE6=Doctor Ross - Industrial Boogie
TTITLE7=Sonny Wilson - The Rainy Day Blues
TTITLE8=Eddie Kirkland - It's Time For Lovin' To Be Done
TTITLE9=One String Jim - I Need $100
TTITLE10=Brother Will Hairston - Alabama Bus
TTITLE11=Wild Bill Moore - We're Gonna Rock
TTITLE12=Henry Smith - Good Rockin' Mama
TTITLE13=John Lee Hooker - Prison Bound Blues
TTITLE14=Kitty Stephenson, Todd Rhodes - Make It Good
TTITLE15=Eddie Kirkland - That's All Right
TTITLE16=Calvin Frazier - Lily Mae
TTITLE17=Baby Boy Warren - My Special Friend Blues
TTITLE18=Robert Henry - Something's Wrong With My Little Machine
TTITLE19=Jon Brim - Mean Man Blues
TTITLE20=Walter Mitchell - Stop Messin' Around
TTITLE21=Slim Pickens - Notoriety Woman
TTITLE22=Bobo Jenkins - Baby Don't You Want To Go
TTITLE23=Little Miss Sharecropper - I've Tried
TTITLE24=John Lee Hooker - Love Money Can't Buy
EXTD=
EXTT0=
EXTT1=
EXTT2=
EXTT3=
EXTT4=
EXTT5=
EXTT6=
EXTT7=
EXTT8=
EXTT9=
EXTT10=
EXTT11=
EXTT12=
EXTT13=
EXTT14=
EXTT15=
EXTT16=
EXTT17=
EXTT18=
EXTT19=
EXTT20=
EXTT21=
EXTT22=
EXTT23=
EXTT24=
PLAYORDER=
